<svg xmlns="http://www.w3.org/2000/svg"  viewBox="0 0 58.34 58.34"><defs><style>      .cls-1 {        fill: #fbb040;      }    </style></defs><path class="cls-1" d="M54.84,19.29c-.09-.5-.56-.83-1.06-.74h0l-4.49.79c-.5.09-.83.56-.74,1.06h0s.2,1.11.2,1.11l-2.55.45-1.54-.24v-13.5c0-2.01-1.63-3.65-3.65-3.65h-6.38v-1.82c0-1.51-1.22-2.74-2.73-2.74h-5.47c-1.51,0-2.73,1.22-2.73,2.74v1.82h-6.38c-2.01,0-3.65,1.63-3.65,3.65v13.51l-1.54.24-2.55-.45.19-1.1c.09-.5-.24-.97-.74-1.06,0,0,0,0,0,0l-4.48-.79c-.5-.09-.97.24-1.06.74t0,0L.01,39.03c-.09.5.24.97.74,1.06h0l4.49.79c.5.09.97-.24,1.06-.74,0,0,0,0,0,0l.08-.49.75.13c.69,1.53,1.7,2.89,2.96,4-.1,1.7.99,3.23,2.63,3.69-1.03,1.72-.48,3.94,1.24,4.98,1.21.73,2.74.69,3.91-.11.29,1.97,2.13,3.33,4.1,3.03.54-.08,1.06-.28,1.51-.6.3,1.97,2.14,3.32,4.11,3.02.36-.05.7-.16,1.03-.32h0s.36.25.36.25c1.68,1.11,3.94.65,5.05-1.03.4-.61.6-1.32.58-2.05.3.08.6.12.91.12,2.01,0,3.65-1.62,3.65-3.63v-.04c.29.08.59.12.89.12,2.01,0,3.65-1.63,3.65-3.65v-.03c1.93.5,3.91-.66,4.41-2.59.1-.38.14-.78.11-1.17,1.26-1.11,2.27-2.48,2.96-4.01l.76-.13.09.49c.09.5.56.83,1.05.74,0,0,0,0,0,0l4.49-.79c.5-.09.83-.56.74-1.06h0s-3.49-19.75-3.49-19.75ZM25.52,2.74c0-.5.41-.91.91-.91h5.47c.5,0,.91.41.91.91v1.82h-7.29v-1.82ZM15.5,8.2c0-1.01.82-1.82,1.82-1.82h23.7c1.01,0,1.82.82,1.82,1.82v2.73c0,1.51-1.22,2.74-2.73,2.74v-.91c0-.5-.41-.91-.91-.91h-3.65c-.5,0-.91.41-.91.91v.91h-10.94v-.91c0-.5-.41-.91-.91-.91h-3.65c-.5,0-.91.41-.91.91v.91c-1.51,0-2.73-1.22-2.73-2.74v-2.73ZM38.28,15.5h-1.82v-1.82h1.82v1.82ZM21.88,15.5h-1.82v-1.82h1.82v1.82ZM15.5,14.56c.78.6,1.74.93,2.73.94v.91c0,.5.41.91.91.91h3.65c.5,0,.91-.41.91-.91v-.91h10.94v.91c0,.5.41.91.91.91h3.65c.5,0,.91-.41.91-.91v-.91c.99,0,1.95-.33,2.73-.94v6.87l-6.93-1.06c-1.51-.23-3.05-.03-4.45.56l-2.3.98-2.29-.98c-1.4-.6-2.95-.79-4.46-.56l-6.93,1.06v-6.87ZM4.66,38.93l-2.69-.48,3.17-17.96,2.69.47-3.17,17.96ZM12.33,45.15c-.65-.77-.55-1.92.22-2.57l3.49-2.93c.77-.65,1.92-.55,2.57.22.65.77.55,1.92-.22,2.57l-3.49,2.93c-.77.65-1.92.54-2.57-.23h0M17.02,50.74c-.77.65-1.92.55-2.57-.23-.65-.77-.55-1.92.22-2.57l4.19-3.52c.79-.62,1.94-.48,2.56.31.59.75.5,1.84-.22,2.48l-4.19,3.52ZM22.63,53.17c-.77.65-1.92.55-2.57-.23-.65-.77-.55-1.92.23-2.57l2.79-2.34c.78-.64,1.93-.53,2.57.25.63.77.53,1.9-.22,2.54l-2.79,2.34ZM28.24,55.6c-.78.64-1.93.53-2.57-.24-.63-.77-.53-1.9.22-2.55l2.79-2.34c.77-.65,1.92-.55,2.57.22.65.77.55,1.92-.23,2.57l-2.79,2.34ZM32.52,55.7c-.5.76-1.49,1.03-2.31.63l2-1.67c.19-.16.36-.33.51-.53.18.53.1,1.1-.2,1.57h0ZM46.14,45.03c-.55.84-1.69,1.07-2.53.51h0l-7.6-5.03c-.41-.3-.98-.2-1.27.2-.3.41-.2.98.2,1.27.02.02.05.03.07.04l6.08,4.03c.84.56,1.07,1.69.51,2.53-.56.84-1.69,1.07-2.53.51l-6.08-4.03c-.1-.07-.21-.11-.33-.14-.49-.09-.97.23-1.07.73-.07.36.09.73.39.93l4.56,3.02c.84.56,1.06,1.69.5,2.53-.56.83-1.68,1.06-2.52.51l-1.04-.69c.08-1.99-1.48-3.67-3.48-3.75-.77-.03-1.54.19-2.18.63-.29-1.96-2.12-3.31-4.08-3.02-.03,0-.06,0-.09.01.03-1.78-1.26-3.32-3.02-3.6.67-1.89-.32-3.97-2.21-4.64-1.22-.43-2.57-.19-3.56.65l-3.49,2.93c-.24.21-.46.45-.64.72-.91-.94-1.63-2.05-2.12-3.27-.12-.29-.38-.51-.69-.56l-1.24-.22,2.57-14.56,2.69.48c.1.02.2.02.3,0l10.44-1.59c1.17-.18,2.37-.03,3.46.44l.68.29-3.64,1.55c-.82.35-1.51.93-2.01,1.67l-3.43,5.17c-.83,1.26-.48,2.96.78,3.79,2.1,1.38,4.92.81,6.31-1.29l1.57-2.36,3.33-.68c.73,2.24,2.46,4.01,4.68,4.79.39.14.79.25,1.19.32l10,6.62c.84.56,1.07,1.69.51,2.53M50.4,38.07c-.31.05-.58.27-.69.56-.49,1.22-1.21,2.34-2.12,3.28-.26-.37-.58-.69-.96-.94l-7.75-5.12c1.01-.2,1.97-.59,2.83-1.15l1.43-.94c.42-.28.54-.84.26-1.26-.28-.42-.84-.54-1.26-.26l-1.43.94c-1.67,1.1-3.77,1.35-5.65.67-1.74-.6-3.08-2-3.61-3.76-.06-.18-.1-.38-.14-.57-.1-.49-.58-.81-1.08-.71l-4.54.93c-.24.05-.44.19-.58.39l-1.77,2.67c-.83,1.26-2.53,1.6-3.79.77-.42-.28-.54-.85-.26-1.27l3.43-5.17c.29-.45.71-.79,1.2-1l8.26-3.52c1.09-.46,2.29-.61,3.46-.44l10.44,1.59c.1.01.2.01.29,0l2.7-.47,2.56,14.56-1.24.21ZM53.68,38.93l-3.17-17.96,2.69-.47,3.16,17.96-2.69.48Z"></path></svg>