<svg xmlns="http://www.w3.org/2000/svg" id="Layer_1" data-name="Layer 1" viewBox="0 0 65.1 65.11"><defs><style>      .cls-1 {        fill: #fbb040;      }    </style></defs><path class="cls-1" d="M17.45,23.86c-1.52,0-2.89-1-3.32-2.52-.26-.89-.15-1.83.3-2.64.45-.81,1.19-1.4,2.08-1.66,3.43-.99,6.43-2.97,8.69-5.74.42-.52,1.19-.6,1.71-.18.52.42.6,1.19.17,1.71-2.57,3.15-5.99,5.42-9.9,6.54-.27.08-.49.25-.62.5-.14.24-.17.53-.09.79.15.51.68.83,1.2.74,1.86-.53,3.54-1.25,5.1-2.17.58-.34,1.32-.14,1.66.44.34.58.14,1.32-.44,1.66-1.74,1.02-3.61,1.82-5.56,2.38-.11.03-.21.06-.32.08-.22.04-.44.06-.66.06Z"></path><path class="cls-1" d="M32.56,27.18h-10.66c-.38,0-.73-.17-.96-.47-.23-.3-.31-.69-.21-1.05l3.03-11.66c.75-2.89,3.37-4.92,6.36-4.92,1.85,0,3.56.75,4.82,2.1,1.64,1.77,4.23,2.28,6.28,1.25.59-.3,1.15-.66,1.66-1.09l.35-.29c.73-.61,1.66-.89,2.6-.78.95.1,1.79.58,2.37,1.33,1.15,1.49.9,3.61-.57,4.83l-.3.25c-3.18,2.64-7.27,3.96-11.47,3.57l-2.14,6.1c-.17.49-.63.81-1.15.81ZM23.47,24.75h8.23l2.18-6.21c.19-.55.75-.89,1.33-.8,3.85.6,7.65-.5,10.55-2.92l.3-.25c.45-.37.54-1.04.2-1.47-.18-.23-.43-.37-.71-.4-.29-.03-.56.05-.78.24l-.34.29c-.65.54-1.37,1.01-2.12,1.39-3.02,1.52-6.79.79-9.16-1.76-.79-.85-1.87-1.32-3.03-1.32-1.89,0-3.53,1.27-4.01,3.1l-2.64,10.13Z"></path><path class="cls-1" d="M20.75,65.11h0c-.32,0-.63-.13-.86-.36l-3.65-3.65c-.48-.47-.47-1.24,0-1.72l25.15-25.15c.47-.48,1.25-.48,1.72,0l4.55,4.55,5.91-5.91-1.53-1.53c-.32-.32-.43-.78-.3-1.21s.48-.75.92-.84l10.98-2.21c.4-.08.81.04,1.1.33.29.29.41.7.33,1.1l-2.21,10.98c-.09.44-.41.79-.84.92-.43.13-.89.01-1.21-.3l-1.87-1.87-10.43,10.42c-.23.23-.54.36-.86.36h0c-.32,0-.63-.13-.86-.36l-4.55-4.55-6.41,6.41c-.47.47-1.25.48-1.72,0-.48-.47-.47-1.24,0-1.72l7.27-7.27c.23-.23.54-.36.86-.36h0c.32,0,.63.13.86.36l4.55,4.55,10.43-10.42c.47-.48,1.25-.48,1.72,0l1.13,1.13,1.4-6.96-6.96,1.4.78.78c.48.47.48,1.24,0,1.72l-7.63,7.63c-.47.48-1.25.48-1.72,0l-4.55-4.55-23.43,23.43,1.93,1.93,6.17-6.17c.47-.47,1.25-.48,1.72,0,.48.47.47,1.24,0,1.72l-7.02,7.02c-.23.23-.54.36-.86.36Z"></path><path class="cls-1" d="M33.42,11.52c-3.17,0-5.76-2.58-5.76-5.76s2.58-5.76,5.76-5.76,5.76,2.58,5.76,5.76-2.58,5.76-5.76,5.76ZM33.42,2.43c-1.83,0-3.33,1.49-3.33,3.33s1.49,3.33,3.33,3.33,3.33-1.49,3.33-3.33-1.49-3.33-3.33-3.33Z"></path><path class="cls-1" d="M15.42,53.96c-.17,0-.34-.01-.52-.04-1.19-.16-2.18-.81-2.77-1.8-.59-.99-.69-2.17-.28-3.24l.78-2.06c.24-.63.94-.94,1.57-.7.63.24.94.94.7,1.57l-.78,2.06c-.14.37-.11.79.1,1.13s.55.57.95.63c.65.08,1.21-.21,1.47-.72,2.52-4.99,9.96-19.7,9.96-19.7.21-.41.63-.67,1.08-.67h3.02c.36,0,.69.16.92.43.23.27.33.63.28.98l-1.54,9.68c-.05.34.04.66.26.92.22.26.53.4.87.4.51,0,.96-.34,1.1-.84l2.9-10.4c.29-1.06.08-2.17-.58-3.04-.66-.87-1.68-1.38-2.77-1.38h-1.38c-.67,0-1.22-.54-1.22-1.22s.54-1.22,1.22-1.22h1.38c1.87,0,3.58.85,4.71,2.34s1.49,3.37.99,5.16l-2.9,10.4c-.43,1.54-1.85,2.62-3.44,2.62-1.05,0-2.04-.46-2.72-1.25-.68-.8-.98-1.85-.81-2.88l1.32-8.28h-.85c-1.48,2.93-7.42,14.67-9.62,19.03-.65,1.29-1.97,2.08-3.39,2.08Z"></path><path class="cls-1" d="M17.41,38.96c-.14,0-.29-.03-.43-.08-.63-.24-.94-.94-.7-1.57l4.49-11.78c.24-.63.94-.94,1.57-.7.63.24.94.94.7,1.57l-4.49,11.78c-.19.48-.65.78-1.14.78Z"></path><path class="cls-1" d="M12.28,37.22c-.74,0-1.47-.28-2.03-.84t0,0L.84,26.97c-1.12-1.12-1.12-2.94,0-4.06l6.83-6.83c.54-.54,1.26-.84,2.03-.84h0c.77,0,1.49.3,2.03.84l9.41,9.41c.54.54.84,1.26.84,2.03s-.3,1.49-.84,2.03l-6.83,6.83c-.56.56-1.3.84-2.03.84ZM11.97,34.66c.17.17.45.17.62,0l6.83-6.83c.11-.11.13-.24.13-.31s-.02-.2-.13-.31l-9.42-9.42c-.11-.11-.24-.13-.31-.13h0c-.07,0-.2.02-.31.13l-6.83,6.83c-.17.17-.17.45,0,.62l9.41,9.41Z"></path><path class="cls-1" d="M9.4,25.85c-.31,0-.62-.12-.86-.36l-4.29-4.29c-.48-.47-.48-1.24,0-1.72.47-.48,1.25-.48,1.72,0l4.29,4.29c.48.47.48,1.24,0,1.72-.24.24-.55.36-.86.36Z"></path><path class="cls-1" d="M16.56,33.01c-.31,0-.62-.12-.86-.36l-4.29-4.29c-.48-.47-.47-1.24,0-1.72.47-.47,1.25-.48,1.72,0l4.29,4.29c.48.47.47,1.24,0,1.72-.24.24-.55.36-.86.36Z"></path><path class="cls-1" d="M10.84,29.43c-.76,0-1.52-.29-2.1-.87l-.39-.39c-1.16-1.16-1.16-3.04,0-4.2l1.63-1.63c.47-.48,1.25-.48,1.72,0l2.87,2.87c.23.23.36.54.36.86s-.13.63-.36.86l-1.63,1.63c-.58.58-1.34.87-2.1.87ZM10.84,24.92l-.77.77c-.21.21-.21.55,0,.76l.39.39s0,0,0,0c.21.21.55.21.76,0l.77-.77-1.15-1.15Z"></path><path class="cls-1" d="M31.39,54.51c-.31,0-.63-.13-.85-.36-.23-.22-.36-.54-.36-.86,0-.08.01-.16.02-.24.02-.08.04-.15.07-.23.03-.07.07-.14.11-.2.05-.07.1-.13.16-.19.05-.05.11-.11.18-.15s.14-.08.21-.11.15-.06.23-.07c.39-.08.81.05,1.09.33.23.23.36.54.36.86s-.13.63-.36.86c-.22.23-.54.36-.86.36Z"></path><path class="cls-1" d="M15.58,43.72c-.32,0-.63-.13-.86-.36-.05-.05-.1-.11-.15-.18-.04-.07-.08-.14-.11-.21-.03-.07-.05-.15-.07-.23,0-.08-.02-.16-.02-.23,0-.32.13-.64.35-.86.46-.46,1.27-.46,1.72,0,.23.22.36.53.36.86,0,.07-.01.15-.02.23-.02.08-.04.16-.07.23-.03.07-.07.14-.11.21-.05.07-.1.13-.16.18-.22.23-.54.36-.86.36Z"></path></svg>