<svg xmlns="http://www.w3.org/2000/svg" id="Layer_1" data-name="Layer 1" viewBox="0 0 68.22 68.23"><defs><style>      .cls-1 {        fill: #fbb040;      }    </style></defs><path class="cls-1" d="M48.96,17.02c-.32,0-.64-.12-.88-.37-3.69-3.85-8.65-5.96-13.97-5.96-4.71,0-9.24,1.7-12.76,4.78-.51.44-1.27.39-1.72-.11-.44-.5-.39-1.27.11-1.72,3.96-3.47,9.06-5.38,14.36-5.38,5.99,0,11.58,2.38,15.73,6.71.46.49.45,1.25-.04,1.72-.24.23-.54.34-.84.34Z"></path><path class="cls-1" d="M40.96,55.89h-13.71c-.67,0-1.22-.54-1.22-1.22v-2.98c0-.85-.49-1.63-1.24-1.98-7.57-3.59-12.47-11.32-12.47-19.69,0-4.76,1.49-9.26,4.3-13.03.4-.54,1.16-.65,1.7-.25.54.4.65,1.16.25,1.7-2.5,3.35-3.82,7.34-3.82,11.55,0,7.46,4.35,14.33,11.08,17.52,1.6.76,2.63,2.4,2.63,4.18v1.76h11.28v-1.76c0-1.78,1.04-3.42,2.64-4.18,6.72-3.19,11.07-10.05,11.07-17.49,0-3.6-.99-7.1-2.86-10.13-.35-.57-.17-1.32.4-1.67.57-.35,1.32-.17,1.67.4,2.11,3.42,3.22,7.35,3.23,11.39,0,8.39-4.89,16.12-12.46,19.71-.76.36-1.25,1.14-1.25,1.99v2.98c0,.67-.54,1.22-1.22,1.22Z"></path><path class="cls-1" d="M42.33,60h-6.14c-.67,0-1.22-.54-1.22-1.22s.54-1.22,1.22-1.22h6.08c.61-.07.83-.28.9-.89-.03-.44-.39-.79-.84-.79h-16.39c-.61.07-.83.28-.9.89.03.44.39.79.84.79h5.98c.67,0,1.22.54,1.22,1.22s-.54,1.22-1.22,1.22h-5.98c-1.81,0-3.27-1.47-3.27-3.27,0-.04,0-.08,0-.11.17-1.83,1.32-2.98,3.16-3.15.04,0,.08,0,.11,0h16.45c1.8,0,3.27,1.47,3.27,3.27,0,.04,0,.08,0,.11-.17,1.83-1.32,2.98-3.15,3.16-.04,0-.08,0-.11,0Z"></path><path class="cls-1" d="M38.24,68.23h-8.25c-2.1,0-3.94-1.84-3.94-3.94v-5.5c0-.67.54-1.22,1.22-1.22h4.61c.67,0,1.22.54,1.22,1.22s-.54,1.22-1.22,1.22h-3.4v4.28c0,.76.75,1.51,1.51,1.51h8.25c.76,0,1.51-.75,1.51-1.51v-4.28h-3.55c-.67,0-1.22-.54-1.22-1.22s.54-1.22,1.22-1.22h4.77c.67,0,1.22.54,1.22,1.22v5.5c0,2.1-1.84,3.94-3.94,3.94Z"></path><path class="cls-1" d="M40.96,64.12h-13.71c-.67,0-1.22-.54-1.22-1.22s.54-1.22,1.22-1.22h13.71c.67,0,1.22.54,1.22,1.22s-.54,1.22-1.22,1.22Z"></path><path class="cls-1" d="M23.83,34.67c-2.15,0-3.96-1.47-4.49-3.45h-5.79c-.67,0-1.22-.54-1.22-1.22s.54-1.22,1.22-1.22h6.85c.67,0,1.22.54,1.22,1.22,0,1.24.99,2.23,2.21,2.23s2.21-.99,2.21-2.21c0-.67.54-1.24,1.22-1.24h6.85c.67,0,1.22.54,1.22,1.22s-.54,1.22-1.22,1.22h-5.8c-.53,1.99-2.34,3.45-4.49,3.45Z"></path><path class="cls-1" d="M34.11,31.22c-.67,0-1.22-.54-1.22-1.22v-5.78c-1.97-.54-3.43-2.34-3.43-4.48s1.45-3.95,3.43-4.48v-5.8c0-.67.54-1.22,1.22-1.22s1.22.54,1.22,1.22v6.86c0,.67-.54,1.22-1.22,1.22-1.22,0-2.21.99-2.21,2.21s.99,2.21,2.21,2.21c.67,0,1.22.54,1.22,1.22v6.83c0,.67-.54,1.22-1.22,1.22Z"></path><path class="cls-1" d="M34.11,55.89c-.67,0-1.22-.54-1.22-1.22v-10.94c0-.67.54-1.22,1.22-1.22,1.22,0,2.21-.99,2.21-2.21s-.99-2.21-2.21-2.21c-.67,0-1.22-.54-1.22-1.22v-6.88c0-.67.54-1.22,1.22-1.22s1.22.54,1.22,1.22v5.82c1.97.54,3.43,2.34,3.43,4.48s-1.45,3.95-3.43,4.48v9.89c0,.67-.54,1.22-1.22,1.22Z"></path><path class="cls-1" d="M54.67,31.22h-6.85c-.67,0-1.21-.54-1.22-1.21,0-1.21-1-2.2-2.21-2.2s-2.2.99-2.21,2.2c0,.67-.55,1.21-1.22,1.21h-6.85c-.67,0-1.22-.54-1.22-1.22s.54-1.22,1.22-1.22h5.81c.55-1.96,2.35-3.41,4.48-3.41s3.93,1.45,4.47,3.41h5.81c.67,0,1.22.54,1.22,1.22s-.54,1.22-1.22,1.22Z"></path><path class="cls-1" d="M34.11,6.54c-.67,0-1.22-.54-1.22-1.22V1.22c0-.67.54-1.22,1.22-1.22s1.22.54,1.22,1.22v4.11c0,.67-.54,1.22-1.22,1.22Z"></path><path class="cls-1" d="M48.5,10.4c-.21,0-.42-.05-.61-.16-.58-.34-.78-1.08-.45-1.66l2.06-3.56c.34-.58,1.08-.78,1.66-.45.58.34.78,1.08.45,1.66l-2.06,3.56c-.23.39-.63.61-1.05.61Z"></path><path class="cls-1" d="M59.03,20.93c-.42,0-.83-.22-1.05-.61-.34-.58-.14-1.33.45-1.66l3.56-2.06c.58-.34,1.33-.14,1.66.45.34.58.14,1.33-.45,1.66l-3.56,2.06c-.19.11-.4.16-.61.16Z"></path><path class="cls-1" d="M5.62,51.77c-.42,0-.83-.22-1.05-.61-.34-.58-.14-1.33.45-1.66l3.56-2.06c.58-.34,1.32-.14,1.66.44.34.58.14,1.33-.45,1.66l-3.56,2.06c-.19.11-.4.16-.61.16Z"></path><path class="cls-1" d="M19.72,10.4c-.42,0-.83-.22-1.05-.61l-2.06-3.56c-.34-.58-.14-1.33.45-1.66.58-.34,1.32-.14,1.66.45l2.06,3.56c.34.58.14,1.33-.45,1.66-.19.11-.4.16-.61.16Z"></path><path class="cls-1" d="M9.18,20.93c-.21,0-.42-.05-.61-.16l-3.56-2.06c-.58-.33-.78-1.08-.45-1.66.34-.58,1.08-.78,1.66-.44l3.56,2.06c.58.33.78,1.08.45,1.66-.23.39-.63.61-1.05.61Z"></path><path class="cls-1" d="M62.6,51.77c-.21,0-.42-.05-.61-.16l-3.56-2.06c-.58-.34-.78-1.08-.45-1.66.34-.58,1.08-.78,1.66-.44l3.56,2.06c.58.34.78,1.08.45,1.66-.23.39-.63.61-1.05.61Z"></path><path class="cls-1" d="M5.33,35.33H1.22c-.67,0-1.22-.54-1.22-1.22s.54-1.22,1.22-1.22h4.11c.67,0,1.22.54,1.22,1.22s-.54,1.22-1.22,1.22Z"></path><path class="cls-1" d="M67,35.33h-4.11c-.67,0-1.22-.54-1.22-1.22s.54-1.22,1.22-1.22h4.11c.67,0,1.22.54,1.22,1.22s-.54,1.22-1.22,1.22Z"></path></svg>