<svg xmlns="http://www.w3.org/2000/svg" id="Layer_1" data-name="Layer 1" viewBox="0 0 45.63 68.41"><defs><style>      .cls-1 {        fill: #fbb040;      }    </style></defs><path class="cls-1" d="M32.7,49.1c.33-.61-.06-1.17-.26-1.47l-.1-.14c-.07-.1-.11-.16-.13-.2-.07-.31-.09-.66-.09-1.01-.01-.43-.03-.88-.14-1.34.24-.37.16-.77.1-.98l-.08-.39c-.17-.75-.33-1.52-.68-2.28-.04-.08-.04-.23-.04-.38-.01-.27-.01-.64-.23-1.01l-.07-.13c-.31-.56-.51-.91-.37-1.34.09-.27-.03-.5-.1-.61-.14-.56-.57-.81-.86-.98-.07-.04-.13-.08-.2-.13-.43-.31-.7-.78-1-1.3-.19-.31-.39-.64-.64-.97.06-.28.04-.63-.28-.85-.13-.08-.21-.16-.38-.11-.13-.17-.31-.33-.58-.46-.5-.48-1.05-.9-1.65-1.25-.78-.46-1.55-.98-1.99-1.7-.38-.63-.85-1.03-1.31-1.41l-.34-.28c-.14-.11-.27-.21-.33-.3-.13-.19-.26-.36-.4-.53-.48-.6-.71-.94-.54-1.48.1-.3-.03-.55-.1-.7-.29-.61-.8-.93-1.21-1.17-.11-.07-.23-.13-.33-.2-.63-.43-1-.84-1.21-1.34-.18-.43-.41-.93-.81-1.38-.04-.06-.04-.11-.01-.14.4-.39.67-.94.71-1.51.04-.71.09-1.33.47-1.82.09-.1.13-.21.16-.33.38.04.76-.17,1.08-.64.07-.1.13-.2.2-.3.18-.29.26-.38.36-.4.74-.07,1.15-.5,1.18-1.27,0-.13,0-.26-.02-.4,0-.06-.01-.16-.01-.21.14-.16.27-.33.41-.5.19-.24.36-.46.54-.63.07-.07.23-.2.31-.41,1,.07,1.88-.31,2.58-1.14.17-.2.24-.4.24-.61.3-.13.4-.39.48-.5.11-.07.27-.17.4-.34.2.06.5.1.83-.1.36-.2.44-.47.44-.66.01-.16-.03-.44-.43-.74-.31-.23-.77-.59-1.48-.41q-.8.19-1.53-.3c-.29-.19-.57-.13-.6-.11-.14-.01-.24-.09-.26-.13-.11-.34-.33-.8-1-.91-.44-.07-.57-.21-.56-.68.03-.58-.17-.87-.41-1.03,0-.03.01-.06.01-.09.31-.04.57-.28.76-.7.17-.36.39-1.01.03-1.43-.53-.61-1.75-.81-2.46-.43-.58-.64-1.33-.48-1.8-.31-.08-.04-.18-.08-.27-.11-.27-.11-.61-.26-.7-.4-.21-.33-.47-.63-.71-.93l-.21-.26c-.07-.13-.34-.38-.68-.4-.2,0-.48.16-.6.31-.23.3-.6.44-1.03.6-.14.06-.29.11-.43.17-.95.41-.84,1.13-.71,1.44-.54-.03-1,.21-1.32.41-.07-.11-.16-.2-.27-.26-.36-.21-.73-.06-.95.03-.4.16-.7.46-.88.87-.16-.14-.31-.28-.47-.44-.11-.11-.34-.33-.71-.28-.3.04-.47.24-.57.37-.2-.28-.43-.46-.74-.43-.21,0-.53.1-.78.53-.14.24-.29.47-.44.7l-.1.23c-.26-.4-.61-.63-.94-.83-.39-.24-.95-.54-1.55-.36-.6.19-.91.74-1.1,1.14-.01.07-.04.16-.07.24-.03.09-.09.21-.11.23-.21,0-.39.14-.5.31-.11.17-.13.43-.04.63.03.07.1.2.16.26l.37.41c.46.51.91,1.04,1.38,1.54.1.1.16.21.2.47.01.6.27.94.77,1.04.09.01.19.03.3.01-.06.21-.06.43.07.64-.1.11-.21.26-.29.46-.06.17-.04.37.06.53.07.13.18.23.33.27.01.04.03.1.06.17.24.67.73,1.1,1.15,1.47l.19.17c.36.33,1.03.54,1.44.24.03.02.09.09.14.14.11.11.46.47.95.41.48-.06.76-.48.84-.63.13-.2.37-.36.66-.41.31-.06.61-.01.84.14.24.17.47.34.7.51-.27.13-.48.4-.6.75-.06.17-.03.37.07.53s.26.27.44.3l.2.03c.17.03.34.06.5.07-.06.34.07.56.16.67.19.21.46.3.8.27.07-.01.16-.01.23-.01-.67.28-.68.73-.63,1.05-.03.04-.17.14-.26.2-.09.06-.17.11-.26.17-.26-.26-.6-.37-1.01-.31-.31.04-.61.06-.93.08-.14.01-.56.03-.76.4-.21.37-.01.74.1.98,0,.01-.04.07-.21.17-.16.09-.41.21-.6.54-.1.17-.11.37-.04.56.07.19.23.31.41.37.84.26,1.6.7,2.48,1.45.7.6,1.5.97,2.44,1.14.01,0,.04,0,.06.01-.01.03-.03.07-.04.1-.3.8.81,1.99.83,2.01.14.14.53.57,1.07.5,0,.01.02.03.02.04.5,1.45,1.38,2.62,2.59,3.49.03.03.06.07.1.1.14.16.33.43.77.41.03.03.06.14.09.2.06.14.11.29.19.44.14.37.36.54.57.63.01.33.04.67.07,1,.06.56.36,1.08.8,1.4.2.14.44.2.68.14.06-.01.1-.03.14-.04.26.31.58.56,1.03.71.03.03.08.13.13.2.16.27.36.48.58.63-.03.01-.04.03-.07.04-.74.43-.44,1.03-.4,1.1.04.08.1.18.14.28.18.41.43.91.97,1.17.24.11.41.31.64.54l.1.1c.04.09-.02.33-.02.36-.14.04-.57.17-.68.58-.1.34.07.61.21.78-.08.21-.08.43-.07.61v.16c.01.37.01.68-.14.93-.14.23-.24.47-.36.71-.06.13-.11.27-.18.4-.37.71-.01,1.14.23,1.34.04.03.08.07.08.24,0,.19-.03.61.31.96.39.39.46.78.24,1.34-.4,1.04-.43,2.09-.07,3.12.11.31.04.68-.04,1.11,0,0-.01.01-.03.04-.7-.3-1.3-.13-1.81.53-.09.11-.26.34-.33.36s-.13.01-.2.03c-.24.01-.71.06-1.04.44h-.07c-.16,0-.3,0-.46-.01-.36-.03-.63.06-.83.27-.2.21-.24.5-.17.84h-.02c-.36-.11-1.14-.39-1.71.34-.36.04-.55.21-.66.37-.24.37-.07.78,0,.91l.09.17s.02.04.03.06c-.23.57-.04.98.23,1.28-.07-.01-.14-.01-.19-.01h-.28c-.53,0-1.2,0-1.74.57-.04,0-.16-.04-.31-.1-.43-.23-.8-.2-1.11.09-.47.41-.34.9-.23,1.21l-.04.04c-.38.37-.5.43-.71.37-.23-.06-.44-.03-.6-.01-.51.07-.94.64-1.07.91-.18.39-.07.66,0,.78l.43.68c.23.37.5.47.7.5.13.01.3,0,.49-.1.1.13.26.28.47.37-.57.51-.63,1.27-.66,1.85-.03.53-.06,1.05-.09,1.58l-.03.68c0,.07-.02.14-.03.23-.04.27-.1.63.06.93-.01.03-.03.06-.03.09-.1.1-.24.28-.24.57,0,.19.16.46.28.57.2.17.44.26.71.26.14,0,.3-.03.44-.07.08-.03.19-.06.29-.07.4-.09,1.03-.23,1.32-.91.01,0,.01-.01.03-.01.41-.21.7-.55.83-.98.04-.13.13-.27.47-.43.67-.31,1.3-.61,1.97-.8.48-.13.73-.48.88-.7.03-.04.09-.11.09-.13.04-.03.11-.08.19-.16.4.14.84.04,1.2-.29.38-.34.53-.78.41-1.18.06-.03.11-.07.17-.13.26-.23.28-.48.28-.61,0-.06-.01-.13-.03-.17.3-.31.48-.58.41-.94-.01-.07-.03-.13-.06-.19,0-.01.01-.01.01-.03.06-.07.09-.16.11-.24.04,0,.09-.01.13-.03.06-.01.13-.04.19-.1l.06.06c.2.17.44.21.76.11.88-.27,1.8-.54,2.61-1.15.29-.21.4-.26.37-.26.98.17,1.2-.6,1.27-.85.06-.19.11-.19.2-.19.61.04,1.21-.27,1.64-.87.09-.13.26-.2.53-.3.24-.1.57-.23.83-.47.24.03.44-.01.63-.13.4-.24.44-.7.48-1.05.01-.16.03-.2.07-.2.4-.11.7-.4.8-.77.06-.2.04-.4-.01-.6.16-.14.24-.36.21-.56,0-.11,0-.31-.11-.53-.14-.23-.13-.5-.09-.93,0-.07.01-.14.01-.23.14-.07.27-.2.34-.4.04-.14.04-.26.02-.37.2,0,.43-.1.54-.27.2-.29.33-.67-.06-1.2M31.45,48.68c-.78.33-.83.93-.78,1.27.02.14.02.31.09.51-.1.13-.16.31-.14.57,0,.13-.01.27-.03.4-.03.31-.06.67.03,1.04-.03.03-.06.06-.09.09-.16.2-.44.67-.03,1.21-.64.3-.71.9-.76,1.18-.24,0-.51.1-.67.34-.07.11-.21.19-.48.28-.34.14-.78.31-1.1.76-.06.09-.27.36-.5.33-.74-.06-1.28.34-1.5,1.04-.4.03-.84.24-1.18.5-.53.4-1.15.63-1.85.84-.03-.02-.04-.04-.07-.06,0,0,0-.01-.01-.03-.24-.6-.63-.68-.91-.64-.14.01-.39.08-.54.3-.17-.14-.41-.17-.63-.1-.27.1-.43.37-.4.66.02.2.09.39.14.55.01.03.01.06.03.09h-.03c-.19.01-.37.09-.47.24-.11.16-.16.33-.1.51.03.17.13.36.27.47-.04.03-.09.07-.13.11l-.1-.07c-.23-.17-.47-.34-.8-.47-.27-.1-.58,0-.74.24-.16.24-.14.56.04.78l.84.96s-.06-.06-.08-.07c-.41-.45-.85-.27-.98-.2-.13.07-.23.2-.29.33-.03.06-.04.14-.06.2-.04.27.06.47.2.63-.06.07-.11.16-.16.21-.06.07-.13.17-.16.19-.78.21-1.5.56-2.19.88-.6.28-.97.67-1.13,1.2-.03.11-.08.19-.21.24-.16.08-.47.24-.58.58-.03.1-.04.13-.31.2.03-.21-.03-.43-.16-.61,0-.06.01-.11.03-.16.02-.13.04-.26.04-.37l.03-.68c.03-.51.04-1.04.08-1.65.04-.64.09-.84.37-.98.47-.24.7-.75.53-1.24-.17-.51-.56-.81-1.03-.81h0c-.24-.46-.56-.57-.78-.6-.13-.01-.3,0-.47.07l-.07-.11s0-.03-.02-.03c.04,0,.09-.01.11-.01.93.24,1.53-.33,1.91-.68l.14-.19c.17-.16.34-.41.33-.75.36.09.83.07,1.31-.43.09-.1.47-.1.73-.1.03.04.06.1.09.17.07.14.24.5.67.56.19.03.36-.03.5-.1.06.04.13.07.2.1.06.01.1.06.17.08l.17.1c.19.1.41.1.6,0,.19-.1.31-.29.33-.5.03-.24-.03-.44-.09-.7.07-.13.11-.31.1-.44-.04-.33-.27-.5-.39-.6l-.24-.2c-.13-.11-.27-.23-.47-.39-.09-.06-.2-.16-.17-.19.16-.28.1-.57.03-.8.1-.06.18-.14.26-.27.03-.06.06-.08.06-.1.07,0,.21.06.3.08.19.06.39.13.63.14.06,0,.13.01.18.03l.16.03c.33.07.64-.14.73-.46.07-.29.08-.54.06-.78h.33c.19,0,.67.01.8-.43.03-.01.14-.03.21-.03.11-.01.24-.03.36-.04.53-.11.84-.53,1.1-.85.09-.11.13-.14.13-.14.01,0,.07,0,.23.08.27.14.6.13.91-.01.4-.18.7-.57.78-1.01.1-.53.21-1.11,0-1.75-.26-.76-.24-1.5.06-2.27.38-1.01.2-1.95-.47-2.71.02-.46-.13-.84-.4-1.14.06-.13.11-.26.17-.39.07-.19.14-.36.24-.51.37-.57.34-1.17.34-1.64v-.24c.19-.2.23-.41.21-.57,0-.14-.04-.26-.1-.37.19-.19.33-.43.4-.71.14-.54.04-1.08-.26-1.41l-.11-.13c-.26-.28-.56-.61-1.03-.83-.13-.06-.23-.27-.33-.49.1-.06.19-.11.28-.17.4-.24.61-.71.56-1.2-.04-.33-.23-.5-.33-.57-.24-.17-.5-.13-.67-.08-.06-.03-.11-.08-.2-.23-.13-.23-.33-.57-.77-.74-.39-.14-.57-.34-.67-.74-.06-.26-.27-.44-.53-.49-.23-.03-.46.06-.6.24-.01-.06-.04-.11-.04-.18-.04-.37-.06-.76-.07-1.14,0-.14-.01-.5-.3-.75-.09-.07-.21-.16-.4-.2-.01-.03-.03-.06-.04-.09-.04-.06-.06-.13-.09-.2-.11-.3-.33-.9-1.08-1.01l-.03-.03c-.09-.09-.17-.2-.3-.28-1.01-.73-1.71-1.67-2.14-2.89-.24-.71-.68-1.01-1.28-.9-.2-.19-.51-.64-.6-.87.17-.44.27-.8.07-1.15-.21-.39-.64-.47-1.1-.56-.71-.13-1.3-.4-1.84-.85-.46-.39-1.08-.88-1.9-1.28.24-.28.34-.63.29-1,.16-.01.31-.04.46-.09.2.26.47.41.77.44.3.03.61-.08.87-.31.06-.06.14-.1.21-.16.27-.19.8-.53.83-1.21.61-.28.85-.83.64-1.45-.19-.56-.61-.88-1.17-.93-.03-.16-.07-.29-.16-.41-.1-.14-.23-.26-.37-.33.04-.09.07-.17.11-.27.07-.17.26-.76-.5-1.14-.31-.26-.64-.5-.98-.73-.5-.36-1.17-.48-1.82-.34-.55.11-1.03.4-1.4.87-.26-.24-.73-.58-1.35-.26-.04,0-.13-.03-.16-.06l-.2-.19c-.36-.31-.67-.58-.81-1.01-.03-.1-.09-.23-.16-.37.26-.41.21-.76.06-1.04.01-.03.03-.06.04-.09l.08-.17c.09-.19.24-.53.06-.9-.06-.13-.18-.27-.4-.37-.01-.06-.03-.1-.06-.16-.14-.31-.56-.43-.88-.3-.01.01-.04.01-.07.03-.1-.23-.23-.43-.39-.61-.44-.48-.88-.97-1.31-1.45.17-.21.26-.44.31-.6l.07-.17c.16-.37.27-.41.29-.41,0,0,.13-.03.55.24.29.17.44.28.54.47.19.36.53.58.93.6.41.03.84-.2,1.08-.57l.2-.31c.07-.1.14-.21.21-.33.24.26.48.41.8.39.29-.03.47-.17.63-.39.16.14.31.3.48.44l.39.36c.16.16.4.2.6.14.21-.06.39-.23.44-.44l.07-.27c.06-.19.1-.36.16-.51.01-.03.01-.06.03-.07.09.11.18.2.31.26.29.14.63.11.94-.07.1-.06.19-.11.27-.17.33-.21.47-.31.73-.26.34.06.74-.1,1-.41.26-.31.34-.71.21-1.14.11-.06.24-.1.36-.14.39-.14.8-.3,1.17-.6.2.23.4.47.57.73.3.47.81.68,1.28.87.16.06.3.13.44.2.17.08.47.06.64-.02.46-.2.48-.14.6.02.2.28.64.67,1.48.17.13-.07.5-.04.74.04-.02.06-.04.1-.06.14-.34.07-.8.34-.9,1.15-.04.19-.14.51.06.85.09.14.2.24.34.33-.04,1.07.56,1.78,1.61,1.97.17.57.73.97,1.4,1.01h.13c.58.39.88.54,1.32.54-.04.04-.1.1-.14.17-.34.03-1.1.13-1.27,1.05-.03.16.03.3.11.41-.33.19-.7.24-1.11.17-.19-.03-.57-.1-.87.19-.16.16-.24.36-.24.61-.27.24-.47.51-.67.77-.13.17-.26.34-.4.49-.31.33-.28.77-.26,1.1,0,.08.01.17.01.24v.07h-.03c-.74.07-1.08.63-1.31.98-.04.07-.09.14-.19.29-.23-.09-.47-.06-.68.04-.29.14-.48.43-.54.77-.01.04-.01.1-.01.17-.54.77-.6,1.61-.67,2.48-.01.13-.11.43-.31.61-.51.5-.54,1.32-.07,1.88.29.34.47.73.61,1.07.31.74.84,1.34,1.67,1.9.13.08.27.17.4.24.31.18.53.31.68.57-.27,1.11.36,1.9.81,2.47.11.14.24.3.34.46.17.26.4.43.58.58l.31.27c.41.36.78.67,1.06,1.11.58.94,1.51,1.58,2.44,2.12.51.3.98.67,1.42,1.08.11.11.24.19.36.24,0,.23.11.46.3.57.09.06.16.1.23.13.04.1.1.18.18.28.21.27.4.57.6.9.33.57.71,1.2,1.34,1.67.1.07.2.13.3.19.21.13.27.17.29.24.01.06.03.11.04.16-.16.85.23,1.54.56,2.09l.07.11c.06.09.06.21.06.41.02.24.02.55.17.87.29.63.43,1.3.58,2.01l.09.4s.01.03.01.07c-.16.2-.24.51-.16.8.11.37.13.77.14,1.21.01.4.01.83.11,1.25.07.31.23.53.34.68l.14.2s.06.07.07.11c-.04.14-.07.17-.1.21"></path><path class="cls-1" d="M17.41,12.23c.3-.21.44-.57.39-.94l-.27-1.6,1.15-1.13c.27-.26.36-.64.24-.98-.11-.36-.41-.6-.77-.66l-1.6-.23-.71-1.45c-.19-.34-.51-.54-.88-.54s-.7.21-.85.54l-.71,1.45-1.59.23c-.37.06-.67.3-.78.66-.11.36-.01.73.24.98l1.15,1.13-.27,1.6c-.06.36.09.73.39.94.17.13.37.18.57.18.16,0,.3-.04.44-.11l1.44-.75,1.44.75c.31.17.7.14,1-.07M14.96,10.19c-.1,0-.2.03-.3.07l-1.17.61.23-1.3c.03-.2-.03-.41-.19-.57l-.94-.93,1.31-.19c.2-.03.38-.16.48-.34l.58-1.18.58,1.18c.08.19.27.31.48.34l1.31.19-.94.93c-.16.14-.21.36-.19.57l.23,1.3-1.17-.61c-.11-.04-.23-.07-.33-.07"></path><path class="cls-1" d="M34.9,33.61c1.61,0,1.61-2.5,0-2.5s-1.61,2.5,0,2.5"></path><path class="cls-1" d="M35.31,37.44c1.61,0,1.61-2.5,0-2.5s-1.61,2.5,0,2.5"></path><path class="cls-1" d="M40.59,34.65c1.61,0,1.61-2.5,0-2.5s-1.61,2.5,0,2.5"></path><path class="cls-1" d="M38.52,48.83c1.61,0,1.61-2.5,0-2.5s-1.61,2.5,0,2.5"></path><path class="cls-1" d="M44.42,48.41c1.61,0,1.61-2.5,0-2.5s-1.61,2.5,0,2.5"></path><path class="cls-1" d="M41.42,54.11c1.61,0,1.61-2.5,0-2.5s-1.61,2.5,0,2.5"></path></svg>