<svg xmlns="http://www.w3.org/2000/svg" viewBox="0 0 56.82 56.82"><defs><style>      .cls-1 {        fill: #fbb040;      }    </style></defs><g id="g285"><g id="g287"><g id="g289"><g id="g295"><path class="cls-1" d="M28.41,56.82c-6.3,0-12.26-2.02-17.25-5.83-.53-.41-.64-1.17-.23-1.71.41-.53,1.17-.63,1.7-.23,4.56,3.49,10.01,5.33,15.77,5.33,14.32,0,25.98-11.65,25.98-25.98,0-5.77-1.85-11.24-5.36-15.8-.41-.53-.31-1.3.22-1.71.53-.41,1.3-.31,1.7.22,3.83,4.99,5.86,10.97,5.86,17.28,0,15.66-12.74,28.41-28.41,28.41Z"></path></g><g id="g299"><path class="cls-1" d="M44.96,8.04c-.26,0-.52-.08-.74-.25-4.57-3.51-10.03-5.36-15.81-5.36-5.4,0-10.57,1.64-14.96,4.74-.55.39-1.31.26-1.69-.29-.39-.55-.26-1.31.29-1.69C16.85,1.79,22.51,0,28.41,0c6.31,0,12.29,2.03,17.29,5.86.53.41.63,1.17.22,1.71-.24.31-.6.48-.97.48Z"></path></g><g id="g303"><path class="cls-1" d="M6.79,46.12c-.37,0-.73-.16-.97-.48C2.01,40.66,0,34.7,0,28.41c0-5.67,1.66-11.14,4.81-15.83.38-.56,1.13-.71,1.69-.33.56.37.71,1.13.33,1.69-2.88,4.28-4.4,9.28-4.4,14.47,0,5.75,1.84,11.2,5.32,15.76.41.53.31,1.3-.23,1.7-.22.17-.48.25-.74.25Z"></path></g><g id="g307"><path class="cls-1" d="M28.41,56.82c-6.68,0-10.28-14.64-10.28-28.41,0-1.89.06-3.77.19-5.61.05-.67.63-1.17,1.3-1.13.67.05,1.18.63,1.13,1.3-.12,1.78-.18,3.61-.18,5.44,0,15.31,4.14,25.98,7.85,25.98,2.15,0,5.21-4.25,6.84-13.58.12-.66.75-1.1,1.41-.99.66.12,1.1.75.99,1.41-1.71,9.77-5.16,15.6-9.23,15.6Z"></path></g><g id="g311"><path class="cls-1" d="M37.29,35.15s-.06,0-.08,0c-.67-.05-1.18-.63-1.13-1.3.12-1.78.18-3.61.18-5.44,0-15.31-4.14-25.98-7.85-25.98-2.16,0-5.22,4.27-6.84,13.63-.12.66-.75,1.1-1.41.99-.66-.12-1.1-.75-.99-1.41C20.87,5.85,24.32,0,28.41,0c6.68,0,10.28,14.64,10.28,28.41,0,1.89-.06,3.78-.19,5.61-.04.64-.58,1.13-1.21,1.13Z"></path></g><g id="g315"><path class="cls-1" d="M33.42,38.69H3.17c-.67,0-1.22-.54-1.22-1.22s.54-1.22,1.22-1.22h30.25c.67,0,1.22.54,1.22,1.22s-.54,1.22-1.22,1.22Z"></path></g><g id="g319"><path class="cls-1" d="M53.65,20.56h-29.85c-.67,0-1.22-.54-1.22-1.22s.54-1.22,1.22-1.22h29.85c.67,0,1.22.54,1.22,1.22s-.54,1.22-1.22,1.22Z"></path></g><g id="g323"><path class="cls-1" d="M16.25,20.56H3.17c-.67,0-1.22-.54-1.22-1.22s.54-1.22,1.22-1.22h13.08c.67,0,1.22.54,1.22,1.22s-.54,1.22-1.22,1.22Z"></path></g><g id="g327"><path class="cls-1" d="M36.96,42.23c-2.62,0-4.75-2.13-4.75-4.75s2.13-4.75,4.75-4.75,4.75,2.13,4.75,4.75-2.13,4.75-4.75,4.75ZM36.96,35.15c-1.28,0-2.32,1.04-2.32,2.32s1.04,2.32,2.32,2.32,2.32-1.04,2.32-2.32-1.04-2.32-2.32-2.32Z"></path></g><g id="g331"><path class="cls-1" d="M19.79,24.1c-2.62,0-4.75-2.13-4.75-4.75s2.13-4.75,4.75-4.75,4.75,2.13,4.75,4.75-2.13,4.75-4.75,4.75ZM19.79,17.02c-1.28,0-2.32,1.04-2.32,2.32s1.04,2.32,2.32,2.32,2.32-1.04,2.32-2.32-1.04-2.32-2.32-2.32Z"></path></g><g id="g335"><path class="cls-1" d="M47.64,13.93c-2.62,0-4.75-2.13-4.75-4.75s2.13-4.75,4.75-4.75,4.75,2.13,4.75,4.75-2.13,4.75-4.75,4.75ZM47.64,6.85c-1.28,0-2.32,1.04-2.32,2.32s1.04,2.32,2.32,2.32,2.32-1.04,2.32-2.32-1.04-2.32-2.32-2.32Z"></path></g><g id="g339"><path class="cls-1" d="M9.17,52.39c-2.62,0-4.75-2.13-4.75-4.75s2.13-4.75,4.75-4.75,4.75,2.13,4.75,4.75-2.13,4.75-4.75,4.75ZM9.17,45.32c-1.28,0-2.32,1.04-2.32,2.32s1.04,2.32,2.32,2.32,2.32-1.04,2.32-2.32-1.04-2.32-2.32-2.32Z"></path></g><g id="g343"><path class="cls-1" d="M53.65,38.69h-13.15c-.67,0-1.22-.54-1.22-1.22s.54-1.22,1.22-1.22h13.15c.67,0,1.22.54,1.22,1.22s-.54,1.22-1.22,1.22Z"></path></g><g id="g347"><path class="cls-1" d="M8.96,10.62c-.32,0-.63-.13-.86-.36-.06-.05-.11-.11-.15-.18-.05-.07-.08-.14-.11-.21-.03-.07-.06-.15-.07-.23-.02-.08-.03-.16-.03-.24,0-.32.13-.63.36-.86.45-.45,1.27-.45,1.72,0,.23.23.36.54.36.86,0,.08-.01.16-.03.24,0,.08-.04.16-.07.23-.03.07-.07.14-.11.21-.04.07-.09.13-.15.18-.23.23-.54.36-.86.36Z"></path></g></g></g></g></svg>